<?xml version="1.0" encoding="utf-8"?>
<!-- Generator: Adobe Illustrator 16.0.3, SVG Export Plug-In . SVG Version: 6.00 Build 0)  -->
<!DOCTYPE svg PUBLIC "-//W3C//DTD SVG 1.1//EN" "http://www.w3.org/Graphics/SVG/1.1/DTD/svg11.dtd">
<svg version="1.1" id="Layer_1" xmlns="http://www.w3.org/2000/svg" xmlns:xlink="http://www.w3.org/1999/xlink" x="0px" y="0px"
	 width="612px" height="792px" viewBox="0 0 612 792" style="enable-background:new 0 0 612 792;" xml:space="preserve">
<style type="text/css">
<![CDATA[
	.st0{opacity:0.3;fill:#FFFFFF;}
	.st1{fill:none;stroke:#FFFFFF;stroke-width:2;stroke-miterlimit:10;}
	.st2{fill:none;stroke:#000000;stroke-linecap:round;stroke-miterlimit:10;}
	.st3{opacity:0.5;fill:#FFFFFF;}
	.st4{fill:none;stroke:#000000;stroke-width:2;stroke-miterlimit:10;}
	.st5{display:none;opacity:0.5;fill:#FFFFFF;}
]]>
</style>
<g id="Touch">
	<polygon id="_x31_1" class="st5" points="86.4,93.4 6.4,60.3 64.7,2 97.8,82 	"/>
	<polygon id="_x39_" class="st5" points="86.4,109.6 6.4,142.7 6.4,60.3 86.4,93.4 	"/>
	<polygon id="_x38_" class="st3" points="97.8,121 64.7,201 6.4,142.7 86.4,109.6 	"/>
	<polygon id="_x36_" class="st5" points="97.8,121 64.7,201 147.1,201 114,121 	"/>
	<polygon id="_x35_" class="st5" points="125.4,109.6 205.4,142.7 147.1,201 114,121 	"/>
	<polygon id="_x33_" class="st5" points="125.4,93.4 205.4,60.3 205.4,142.7 125.4,109.6 	"/>
	<polygon id="_x32_" class="st5" points="114,82 147.1,2 205.4,60.3 125.4,93.4 	"/>
	<polygon id="_x31_2" class="st5" points="64.7,2 147.1,2 114,82 97.8,82 	"/>
</g>
<g>
	<path class="st0" d="M147.1,2H64.7L6.4,60.3v82.4L64.7,201h82.4l58.3-58.3V60.3L147.1,2z M125.4,109.6L114,121H97.8l-11.4-11.4
		V93.4L97.8,82H114l11.4,11.4V109.6z"/>
	<path class="st4" d="M147.1,2H64.7L6.4,60.3v82.4L64.7,201h82.4l58.3-58.3V60.3L147.1,2z M125.4,109.6L114,121H97.8l-11.4-11.4
		V93.4L97.8,82H114l11.4,11.4V109.6z"/>
	<g>
		<line class="st2" x1="78.4" y1="112.9" x2="14.4" y2="139.4"/>
		<line class="st2" x1="78.4" y1="90.1" x2="14.4" y2="63.6"/>
		<line class="st2" x1="94.5" y1="74" x2="68" y2="10"/>
		<line class="st2" x1="117.3" y1="74" x2="143.8" y2="10"/>
		<line class="st2" x1="133.4" y1="90.1" x2="197.4" y2="63.6"/>
		<line class="st2" x1="133.4" y1="112.9" x2="197.4" y2="139.4"/>
		<line class="st2" x1="117.3" y1="129" x2="143.8" y2="193"/>
		<line class="st2" x1="94.5" y1="129" x2="68" y2="193"/>
	</g>
	<g id="Lines">
		<polyline class="st1" points="21,39.4 2,58.4 2,85.4 		"/>
		<polyline class="st1" points="190.7,164 209.7,145 209.7,118 		"/>
		<line class="st1" x1="121.4" y1="95.1" x2="112.3" y2="86"/>
		<line class="st1" x1="90.4" y1="107.9" x2="99.5" y2="117"/>
		<g>
			<line class="st1" x1="102.9" y1="98.5" x2="108.9" y2="104.5"/>
			<line class="st1" x1="108.9" y1="98.5" x2="102.9" y2="104.5"/>
		</g>
	</g>
	<polygon points="101.4,13 111.4,13 106.4,8 	"/>
	<polygon points="111.4,190.3 101.4,190.3 106.4,195.3 	"/>
</g>
</svg>
